<svg id="visual" viewBox="0 0 900 600" width="900" height="600" xmlns="http://www.w3.org/2000/svg" xmlns:xlink="http://www.w3.org/1999/xlink" version="1.1"><g stroke-width="1" stroke-linejoin="bevel"><path d="M429 318L414 304L384 379Z" fill="#00ddae" stroke="#00ddae"></path><path d="M414 304L347 327L384 379Z" fill="#0ac5a6" stroke="#0ac5a6"></path><path d="M347 327L373 393L384 379Z" fill="#0ac5a6" stroke="#0ac5a6"></path><path d="M458 420L463 357L384 379Z" fill="#0ac5a6" stroke="#0ac5a6"></path><path d="M384 379L463 357L429 318Z" fill="#1cb69f" stroke="#1cb69f"></path><path d="M373 393L392 417L384 379Z" fill="#00e4b0" stroke="#00e4b0"></path><path d="M429 318L396 257L414 304Z" fill="#0ac5a6" stroke="#0ac5a6"></path><path d="M414 304L396 257L347 327Z" fill="#0ac5a6" stroke="#0ac5a6"></path><path d="M498 174L396 257L429 318Z" fill="#14bda3" stroke="#14bda3"></path><path d="M344 252L318 279L347 327Z" fill="#29a697" stroke="#29a697"></path><path d="M340 475L343 475L373 393Z" fill="#0ac5a6" stroke="#0ac5a6"></path><path d="M396 257L344 252L347 327Z" fill="#0ac5a6" stroke="#0ac5a6"></path><path d="M392 417L458 420L384 379Z" fill="#00d5ac" stroke="#00d5ac"></path><path d="M392 417L453 427L458 420Z" fill="#00d5ac" stroke="#00d5ac"></path><path d="M453 427L454 427L458 420Z" fill="#23ae9b" stroke="#23ae9b"></path><path d="M276 229L290 290L318 279Z" fill="#00cda9" stroke="#00cda9"></path><path d="M318 279L290 290L347 327Z" fill="#00ddae" stroke="#00ddae"></path><path d="M343 475L375 482L392 417Z" fill="#00d5ac" stroke="#00d5ac"></path><path d="M454 427L484 427L458 420Z" fill="#00cda9" stroke="#00cda9"></path><path d="M458 420L484 427L463 357Z" fill="#00ecb2" stroke="#00ecb2"></path><path d="M343 475L392 417L373 393Z" fill="#1cb69f" stroke="#1cb69f"></path><path d="M392 417L375 482L453 427Z" fill="#1cb69f" stroke="#1cb69f"></path><path d="M453 427L473 490L454 427Z" fill="#00ecb2" stroke="#00ecb2"></path><path d="M454 427L473 490L484 427Z" fill="#00cda9" stroke="#00cda9"></path><path d="M340 475L373 393L206 453Z" fill="#29a697" stroke="#29a697"></path><path d="M204 357L373 393L347 327Z" fill="#00cda9" stroke="#00cda9"></path><path d="M343 475L387 502L375 482Z" fill="#23ae9b" stroke="#23ae9b"></path><path d="M351 196L329 205L344 252Z" fill="#00ecb2" stroke="#00ecb2"></path><path d="M344 252L276 229L318 279Z" fill="#00e4b0" stroke="#00e4b0"></path><path d="M396 257L351 196L344 252Z" fill="#00ddae" stroke="#00ddae"></path><path d="M484 427L553 360L463 357Z" fill="#00ecb2" stroke="#00ecb2"></path><path d="M463 357L555 285L429 318Z" fill="#00e4b0" stroke="#00e4b0"></path><path d="M396 257L369 166L351 196Z" fill="#14bda3" stroke="#14bda3"></path><path d="M329 205L276 229L344 252Z" fill="#23ae9b" stroke="#23ae9b"></path><path d="M340 475L387 502L343 475Z" fill="#14bda3" stroke="#14bda3"></path><path d="M375 482L387 502L453 427Z" fill="#00ddae" stroke="#00ddae"></path><path d="M387 502L473 490L453 427Z" fill="#14bda3" stroke="#14bda3"></path><path d="M484 427L603 413L553 360Z" fill="#29a697" stroke="#29a697"></path><path d="M553 360L555 285L463 357Z" fill="#00ddae" stroke="#00ddae"></path><path d="M498 174L369 166L396 257Z" fill="#00cda9" stroke="#00cda9"></path><path d="M351 196L324 177L329 205Z" fill="#1cb69f" stroke="#1cb69f"></path><path d="M329 205L324 177L276 229Z" fill="#05f4b3" stroke="#05f4b3"></path><path d="M369 166L324 177L351 196Z" fill="#14bda3" stroke="#14bda3"></path><path d="M191 303L204 357L290 290Z" fill="#05f4b3" stroke="#05f4b3"></path><path d="M290 290L204 357L347 327Z" fill="#00ddae" stroke="#00ddae"></path><path d="M555 285L498 174L429 318Z" fill="#00ecb2" stroke="#00ecb2"></path><path d="M398 548L487 522L473 490Z" fill="#14bda3" stroke="#14bda3"></path><path d="M611 486L603 413L484 427Z" fill="#00ecb2" stroke="#00ecb2"></path><path d="M194 241L197 283L276 229Z" fill="#00d5ac" stroke="#00d5ac"></path><path d="M276 229L197 283L290 290Z" fill="#00ecb2" stroke="#00ecb2"></path><path d="M197 283L191 303L290 290Z" fill="#00ddae" stroke="#00ddae"></path><path d="M382 560L398 548L387 502Z" fill="#00e4b0" stroke="#00e4b0"></path><path d="M387 502L398 548L473 490Z" fill="#14bda3" stroke="#14bda3"></path><path d="M382 560L387 502L340 475Z" fill="#1cb69f" stroke="#1cb69f"></path><path d="M553 360L610 313L555 285Z" fill="#14bda3" stroke="#14bda3"></path><path d="M559 187L536 168L498 174Z" fill="#23ae9b" stroke="#23ae9b"></path><path d="M643 393L610 313L553 360Z" fill="#00d5ac" stroke="#00d5ac"></path><path d="M162 375L206 453L204 357Z" fill="#14bda3" stroke="#14bda3"></path><path d="M204 357L206 453L373 393Z" fill="#00cda9" stroke="#00cda9"></path><path d="M300 581L382 560L340 475Z" fill="#00cda9" stroke="#00cda9"></path><path d="M398 548L494 600L487 522Z" fill="#0ac5a6" stroke="#0ac5a6"></path><path d="M611 486L484 427L473 490Z" fill="#23ae9b" stroke="#23ae9b"></path><path d="M559 187L498 174L555 285Z" fill="#29a697" stroke="#29a697"></path><path d="M498 174L435 108L369 166Z" fill="#1cb69f" stroke="#1cb69f"></path><path d="M212 210L194 241L276 229Z" fill="#00e4b0" stroke="#00e4b0"></path><path d="M197 283L127 264L191 303Z" fill="#14bda3" stroke="#14bda3"></path><path d="M229 172L212 210L276 229Z" fill="#00cda9" stroke="#00cda9"></path><path d="M595 192L559 187L615 213Z" fill="#14bda3" stroke="#14bda3"></path><path d="M504 123L511 147L540 128Z" fill="#00ecb2" stroke="#00ecb2"></path><path d="M536 168L511 147L498 174Z" fill="#00ecb2" stroke="#00ecb2"></path><path d="M504 123L435 108L498 174Z" fill="#00ecb2" stroke="#00ecb2"></path><path d="M369 166L279 130L324 177Z" fill="#23ae9b" stroke="#23ae9b"></path><path d="M324 177L229 172L276 229Z" fill="#05f4b3" stroke="#05f4b3"></path><path d="M146 379L162 375L191 303Z" fill="#00ddae" stroke="#00ddae"></path><path d="M191 303L162 375L204 357Z" fill="#00cda9" stroke="#00cda9"></path><path d="M212 210L141 175L194 241Z" fill="#05f4b3" stroke="#05f4b3"></path><path d="M279 130L229 172L324 177Z" fill="#00ddae" stroke="#00ddae"></path><path d="M342 44L279 130L369 166Z" fill="#05f4b3" stroke="#05f4b3"></path><path d="M511 147L504 123L498 174Z" fill="#05f4b3" stroke="#05f4b3"></path><path d="M540 128L511 147L536 168Z" fill="#14bda3" stroke="#14bda3"></path><path d="M155 451L191 475L206 453Z" fill="#29a697" stroke="#29a697"></path><path d="M206 453L267 563L340 475Z" fill="#00d5ac" stroke="#00d5ac"></path><path d="M615 213L559 187L555 285Z" fill="#00e4b0" stroke="#00e4b0"></path><path d="M569 116L540 128L536 168Z" fill="#23ae9b" stroke="#23ae9b"></path><path d="M127 264L146 379L191 303Z" fill="#1cb69f" stroke="#1cb69f"></path><path d="M162 375L155 451L206 453Z" fill="#00cda9" stroke="#00cda9"></path><path d="M644 402L643 393L603 413Z" fill="#05f4b3" stroke="#05f4b3"></path><path d="M603 413L643 393L553 360Z" fill="#00d5ac" stroke="#00d5ac"></path><path d="M610 313L615 213L555 285Z" fill="#00d5ac" stroke="#00d5ac"></path><path d="M671 197L615 213L610 313Z" fill="#0ac5a6" stroke="#0ac5a6"></path><path d="M569 116L536 168L559 187Z" fill="#05f4b3" stroke="#05f4b3"></path><path d="M407 73L409 81L415 57Z" fill="#00cda9" stroke="#00cda9"></path><path d="M569 116L559 187L595 192Z" fill="#00ddae" stroke="#00ddae"></path><path d="M611 486L644 402L603 413Z" fill="#0ac5a6" stroke="#0ac5a6"></path><path d="M191 475L267 563L206 453Z" fill="#14bda3" stroke="#14bda3"></path><path d="M267 563L300 581L340 475Z" fill="#00cda9" stroke="#00cda9"></path><path d="M409 81L435 108L415 57Z" fill="#1cb69f" stroke="#1cb69f"></path><path d="M435 108L409 81L369 166Z" fill="#00cda9" stroke="#00cda9"></path><path d="M379 600L408 600L382 560Z" fill="#14bda3" stroke="#14bda3"></path><path d="M382 560L408 600L398 548Z" fill="#29a697" stroke="#29a697"></path><path d="M487 522L611 486L473 490Z" fill="#14bda3" stroke="#14bda3"></path><path d="M331 600L379 600L382 560Z" fill="#29a697" stroke="#29a697"></path><path d="M578 541L611 486L487 522Z" fill="#14bda3" stroke="#14bda3"></path><path d="M155 451L180 490L191 475Z" fill="#23ae9b" stroke="#23ae9b"></path><path d="M191 475L180 490L267 563Z" fill="#05f4b3" stroke="#05f4b3"></path><path d="M146 379L155 451L162 375Z" fill="#14bda3" stroke="#14bda3"></path><path d="M725 448L658 374L644 402Z" fill="#0ac5a6" stroke="#0ac5a6"></path><path d="M644 402L658 374L643 393Z" fill="#00e4b0" stroke="#00e4b0"></path><path d="M643 393L658 374L610 313Z" fill="#00ecb2" stroke="#00ecb2"></path><path d="M415 57L435 108L507 41Z" fill="#29a697" stroke="#29a697"></path><path d="M409 81L342 44L369 166Z" fill="#1cb69f" stroke="#1cb69f"></path><path d="M275 600L331 600L300 581Z" fill="#14bda3" stroke="#14bda3"></path><path d="M300 581L331 600L382 560Z" fill="#29a697" stroke="#29a697"></path><path d="M229 172L187 166L212 210Z" fill="#0ac5a6" stroke="#0ac5a6"></path><path d="M194 241L127 264L197 283Z" fill="#00ecb2" stroke="#00ecb2"></path><path d="M159 126L187 166L229 172Z" fill="#00d5ac" stroke="#00d5ac"></path><path d="M153 158L187 166L159 126Z" fill="#00cda9" stroke="#00cda9"></path><path d="M495 600L578 541L487 522Z" fill="#05f4b3" stroke="#05f4b3"></path><path d="M141 175L127 264L194 241Z" fill="#00ddae" stroke="#00ddae"></path><path d="M146 379L85 408L155 451Z" fill="#1cb69f" stroke="#1cb69f"></path><path d="M408 600L494 600L398 548Z" fill="#29a697" stroke="#29a697"></path><path d="M494 600L495 600L487 522Z" fill="#23ae9b" stroke="#23ae9b"></path><path d="M507 41L435 108L504 123Z" fill="#00e4b0" stroke="#00e4b0"></path><path d="M407 73L342 44L409 81Z" fill="#00cda9" stroke="#00cda9"></path><path d="M671 197L569 116L595 192Z" fill="#14bda3" stroke="#14bda3"></path><path d="M540 128L507 41L504 123Z" fill="#23ae9b" stroke="#23ae9b"></path><path d="M191 600L275 600L267 563Z" fill="#00e4b0" stroke="#00e4b0"></path><path d="M267 563L275 600L300 581Z" fill="#05f4b3" stroke="#05f4b3"></path><path d="M598 575L621 537L578 541Z" fill="#00d5ac" stroke="#00d5ac"></path><path d="M578 541L621 537L611 486Z" fill="#29a697" stroke="#29a697"></path><path d="M611 486L725 448L644 402Z" fill="#29a697" stroke="#29a697"></path><path d="M415 57L342 44L407 73Z" fill="#23ae9b" stroke="#23ae9b"></path><path d="M141 175L105 254L127 264Z" fill="#29a697" stroke="#29a697"></path><path d="M43 311L85 408L146 379Z" fill="#00d5ac" stroke="#00d5ac"></path><path d="M261 67L229 172L279 130Z" fill="#00d5ac" stroke="#00d5ac"></path><path d="M187 166L141 175L212 210Z" fill="#1cb69f" stroke="#1cb69f"></path><path d="M153 158L141 175L187 166Z" fill="#1cb69f" stroke="#1cb69f"></path><path d="M342 44L261 67L279 130Z" fill="#00cda9" stroke="#00cda9"></path><path d="M495 600L598 575L578 541Z" fill="#00ddae" stroke="#00ddae"></path><path d="M737 234L671 197L743 250Z" fill="#00d5ac" stroke="#00d5ac"></path><path d="M615 213L671 197L595 192Z" fill="#0ac5a6" stroke="#0ac5a6"></path><path d="M125 517L168 557L180 490Z" fill="#14bda3" stroke="#14bda3"></path><path d="M180 490L168 557L267 563Z" fill="#0ac5a6" stroke="#0ac5a6"></path><path d="M125 517L180 490L155 451Z" fill="#05f4b3" stroke="#05f4b3"></path><path d="M43 311L146 379L127 264Z" fill="#00ecb2" stroke="#00ecb2"></path><path d="M261 67L159 126L229 172Z" fill="#0ac5a6" stroke="#0ac5a6"></path><path d="M153 158L121 138L141 175Z" fill="#00e4b0" stroke="#00e4b0"></path><path d="M17 205L24 234L105 254Z" fill="#00e4b0" stroke="#00e4b0"></path><path d="M511 0L507 41L529 0Z" fill="#0ac5a6" stroke="#0ac5a6"></path><path d="M569 116L507 41L540 128Z" fill="#00ecb2" stroke="#00ecb2"></path><path d="M415 57L384 0L342 44Z" fill="#00d5ac" stroke="#00d5ac"></path><path d="M85 408L125 517L155 451Z" fill="#1cb69f" stroke="#1cb69f"></path><path d="M123 600L191 600L168 557Z" fill="#00ecb2" stroke="#00ecb2"></path><path d="M168 557L191 600L267 563Z" fill="#29a697" stroke="#29a697"></path><path d="M477 -27L384 0L415 57Z" fill="#00cda9" stroke="#00cda9"></path><path d="M342 44L310 0L261 67Z" fill="#00ddae" stroke="#00ddae"></path><path d="M122 0L121 138L159 126Z" fill="#05f4b3" stroke="#05f4b3"></path><path d="M159 126L121 138L153 158Z" fill="#00ddae" stroke="#00ddae"></path><path d="M181 0L159 126L261 67Z" fill="#00ddae" stroke="#00ddae"></path><path d="M384 0L336 0L342 44Z" fill="#00d5ac" stroke="#00d5ac"></path><path d="M621 537L725 448L611 486Z" fill="#00cda9" stroke="#00cda9"></path><path d="M743 250L671 197L610 313Z" fill="#00ddae" stroke="#00ddae"></path><path d="M746 559L725 448L621 537Z" fill="#1cb69f" stroke="#1cb69f"></path><path d="M725 448L742 382L658 374Z" fill="#00ecb2" stroke="#00ecb2"></path><path d="M336 0L310 0L342 44Z" fill="#14bda3" stroke="#14bda3"></path><path d="M24 234L43 311L105 254Z" fill="#23ae9b" stroke="#23ae9b"></path><path d="M105 254L43 311L127 264Z" fill="#23ae9b" stroke="#23ae9b"></path><path d="M69 540L123 600L125 517Z" fill="#23ae9b" stroke="#23ae9b"></path><path d="M743 250L610 313L658 374Z" fill="#1cb69f" stroke="#1cb69f"></path><path d="M529 0L507 41L545 0Z" fill="#1cb69f" stroke="#1cb69f"></path><path d="M507 41L572 0L545 0Z" fill="#14bda3" stroke="#14bda3"></path><path d="M507 41L477 -27L415 57Z" fill="#0ac5a6" stroke="#0ac5a6"></path><path d="M742 382L743 250L658 374Z" fill="#29a697" stroke="#29a697"></path><path d="M507 41L569 116L572 0Z" fill="#23ae9b" stroke="#23ae9b"></path><path d="M495 600L652 600L598 575Z" fill="#00e4b0" stroke="#00e4b0"></path><path d="M598 575L652 600L621 537Z" fill="#05f4b3" stroke="#05f4b3"></path><path d="M636 51L569 116L671 197Z" fill="#05f4b3" stroke="#05f4b3"></path><path d="M765 227L751 221L737 234Z" fill="#00cda9" stroke="#00cda9"></path><path d="M737 234L751 221L671 197Z" fill="#29a697" stroke="#29a697"></path><path d="M765 227L737 234L743 250Z" fill="#00d5ac" stroke="#00d5ac"></path><path d="M511 -35L511 0L529 0Z" fill="#1cb69f" stroke="#1cb69f"></path><path d="M511 -35L477 -27L511 0Z" fill="#14bda3" stroke="#14bda3"></path><path d="M511 0L477 -27L507 41Z" fill="#00e4b0" stroke="#00e4b0"></path><path d="M384 0L477 -27L336 0Z" fill="#00d5ac" stroke="#00d5ac"></path><path d="M336 0L173 -27L310 0Z" fill="#1cb69f" stroke="#1cb69f"></path><path d="M69 540L125 517L31 474Z" fill="#05f4b3" stroke="#05f4b3"></path><path d="M125 517L123 600L168 557Z" fill="#1cb69f" stroke="#1cb69f"></path><path d="M656 22L636 51L703 61Z" fill="#29a697" stroke="#29a697"></path><path d="M31 474L125 517L85 408Z" fill="#0ac5a6" stroke="#0ac5a6"></path><path d="M636 51L572 0L569 116Z" fill="#00d5ac" stroke="#00d5ac"></path><path d="M545 0L511 -35L529 0Z" fill="#00ddae" stroke="#00ddae"></path><path d="M17 205L105 254L141 175Z" fill="#14bda3" stroke="#14bda3"></path><path d="M1 432L31 474L85 408Z" fill="#00ecb2" stroke="#00ecb2"></path><path d="M830 300L765 227L743 250Z" fill="#14bda3" stroke="#14bda3"></path><path d="M703 61L636 51L671 197Z" fill="#05f4b3" stroke="#05f4b3"></path><path d="M0 395L85 408L43 311Z" fill="#0ac5a6" stroke="#0ac5a6"></path><path d="M572 0L511 -35L545 0Z" fill="#23ae9b" stroke="#23ae9b"></path><path d="M173 -27L181 0L310 0Z" fill="#00ddae" stroke="#00ddae"></path><path d="M0 281L0 330L43 311Z" fill="#00cda9" stroke="#00cda9"></path><path d="M0 330L0 395L43 311Z" fill="#00cda9" stroke="#00cda9"></path><path d="M24 234L0 281L43 311Z" fill="#29a697" stroke="#29a697"></path><path d="M121 138L17 205L141 175Z" fill="#00ddae" stroke="#00ddae"></path><path d="M24 234L0 209L0 281Z" fill="#23ae9b" stroke="#23ae9b"></path><path d="M0 209L17 205L0 152Z" fill="#05f4b3" stroke="#05f4b3"></path><path d="M173 -27L336 0L477 -27Z" fill="#00d5ac" stroke="#00d5ac"></path><path d="M310 0L181 0L261 67Z" fill="#00e4b0" stroke="#00e4b0"></path><path d="M0 395L1 432L85 408Z" fill="#00e4b0" stroke="#00e4b0"></path><path d="M31 474L5 570L69 540Z" fill="#00d5ac" stroke="#00d5ac"></path><path d="M0 395L0 430L1 432Z" fill="#00d5ac" stroke="#00d5ac"></path><path d="M652 600L731 582L621 537Z" fill="#00cda9" stroke="#00cda9"></path><path d="M725 448L812 415L742 382Z" fill="#00ddae" stroke="#00ddae"></path><path d="M742 382L830 300L743 250Z" fill="#00ecb2" stroke="#00ecb2"></path><path d="M703 61L671 197L779 114Z" fill="#00ddae" stroke="#00ddae"></path><path d="M636 51L654 0L572 0Z" fill="#00e4b0" stroke="#00e4b0"></path><path d="M572 0L654 0L511 -35Z" fill="#23ae9b" stroke="#23ae9b"></path><path d="M731 582L746 559L621 537Z" fill="#29a697" stroke="#29a697"></path><path d="M713 600L731 582L652 600Z" fill="#29a697" stroke="#29a697"></path><path d="M785 157L671 197L751 221Z" fill="#05f4b3" stroke="#05f4b3"></path><path d="M0 152L17 205L121 138Z" fill="#23ae9b" stroke="#23ae9b"></path><path d="M17 205L0 209L24 234Z" fill="#0ac5a6" stroke="#0ac5a6"></path><path d="M746 559L785 489L725 448Z" fill="#29a697" stroke="#29a697"></path><path d="M-28 411L0 478L1 432Z" fill="#23ae9b" stroke="#23ae9b"></path><path d="M1 432L0 478L31 474Z" fill="#1cb69f" stroke="#1cb69f"></path><path d="M69 540L49 600L123 600Z" fill="#00e4b0" stroke="#00e4b0"></path><path d="M173 -27L145 0L181 0Z" fill="#29a697" stroke="#29a697"></path><path d="M181 0L145 0L159 126Z" fill="#00cda9" stroke="#00cda9"></path><path d="M785 489L812 415L725 448Z" fill="#23ae9b" stroke="#23ae9b"></path><path d="M688 0L654 0L656 22Z" fill="#14bda3" stroke="#14bda3"></path><path d="M656 22L654 0L636 51Z" fill="#23ae9b" stroke="#23ae9b"></path><path d="M511 -35L173 -27L477 -27Z" fill="#00cda9" stroke="#00cda9"></path><path d="M0 395L-28 411L0 430Z" fill="#23ae9b" stroke="#23ae9b"></path><path d="M0 430L-28 411L1 432Z" fill="#23ae9b" stroke="#23ae9b"></path><path d="M0 330L-28 411L0 395Z" fill="#0ac5a6" stroke="#0ac5a6"></path><path d="M0 281L-28 411L0 330Z" fill="#00e4b0" stroke="#00e4b0"></path><path d="M-38 107L-28 411L0 281Z" fill="#0ac5a6" stroke="#0ac5a6"></path><path d="M774 600L770 549L746 559Z" fill="#23ae9b" stroke="#23ae9b"></path><path d="M746 559L770 549L785 489Z" fill="#00ecb2" stroke="#00ecb2"></path><path d="M785 489L826 425L812 415Z" fill="#14bda3" stroke="#14bda3"></path><path d="M774 600L746 559L731 582Z" fill="#00d5ac" stroke="#00d5ac"></path><path d="M765 227L785 157L751 221Z" fill="#00e4b0" stroke="#00e4b0"></path><path d="M703 61L688 0L656 22Z" fill="#29a697" stroke="#29a697"></path><path d="M833 224L785 157L765 227Z" fill="#00ecb2" stroke="#00ecb2"></path><path d="M5 570L31 474L0 478Z" fill="#00e4b0" stroke="#00e4b0"></path><path d="M5 570L49 600L69 540Z" fill="#29a697" stroke="#29a697"></path><path d="M173 -27L122 0L145 0Z" fill="#00e4b0" stroke="#00e4b0"></path><path d="M145 0L122 0L159 126Z" fill="#05f4b3" stroke="#05f4b3"></path><path d="M58 37L0 152L121 138Z" fill="#00ddae" stroke="#00ddae"></path><path d="M0 209L-38 107L0 281Z" fill="#29a697" stroke="#29a697"></path><path d="M812 415L830 300L742 382Z" fill="#14bda3" stroke="#14bda3"></path><path d="M835 464L826 425L785 489Z" fill="#00ddae" stroke="#00ddae"></path><path d="M812 415L872 405L830 300Z" fill="#00e4b0" stroke="#00e4b0"></path><path d="M797 82L779 114L834 135Z" fill="#00cda9" stroke="#00cda9"></path><path d="M785 157L779 114L671 197Z" fill="#00d5ac" stroke="#00d5ac"></path><path d="M749 50L688 0L703 61Z" fill="#05f4b3" stroke="#05f4b3"></path><path d="M654 0L802 -38L511 -35Z" fill="#00ecb2" stroke="#00ecb2"></path><path d="M173 -27L101 0L122 0Z" fill="#00ddae" stroke="#00ddae"></path><path d="M122 0L58 37L121 138Z" fill="#29a697" stroke="#29a697"></path><path d="M0 583L5 570L0 478Z" fill="#00ddae" stroke="#00ddae"></path><path d="M101 0L58 37L122 0Z" fill="#0ac5a6" stroke="#0ac5a6"></path><path d="M855 243L833 224L830 300Z" fill="#00e4b0" stroke="#00e4b0"></path><path d="M830 300L833 224L765 227Z" fill="#23ae9b" stroke="#23ae9b"></path><path d="M770 549L835 464L785 489Z" fill="#05f4b3" stroke="#05f4b3"></path><path d="M900 325L855 243L830 300Z" fill="#00ddae" stroke="#00ddae"></path><path d="M797 82L749 50L779 114Z" fill="#00e4b0" stroke="#00e4b0"></path><path d="M779 114L749 50L703 61Z" fill="#14bda3" stroke="#14bda3"></path><path d="M713 600L774 600L731 582Z" fill="#00d5ac" stroke="#00d5ac"></path><path d="M770 549L900 493L835 464Z" fill="#00e4b0" stroke="#00e4b0"></path><path d="M-28 411L0 583L0 478Z" fill="#29a697" stroke="#29a697"></path><path d="M5 570L0 583L49 600Z" fill="#0ac5a6" stroke="#0ac5a6"></path><path d="M872 405L812 415L826 425Z" fill="#23ae9b" stroke="#23ae9b"></path><path d="M834 135L779 114L785 157Z" fill="#0ac5a6" stroke="#0ac5a6"></path><path d="M774 600L788 600L770 549Z" fill="#00cda9" stroke="#00cda9"></path><path d="M-28 411L0 600L0 583Z" fill="#1cb69f" stroke="#1cb69f"></path><path d="M0 583L0 600L49 600Z" fill="#00e4b0" stroke="#00e4b0"></path><path d="M834 135L785 157L833 224Z" fill="#0ac5a6" stroke="#0ac5a6"></path><path d="M749 50L802 -38L688 0Z" fill="#00ddae" stroke="#00ddae"></path><path d="M900 448L861 446L903 473Z" fill="#00e4b0" stroke="#00e4b0"></path><path d="M835 464L861 446L826 425Z" fill="#29a697" stroke="#29a697"></path><path d="M861 446L872 405L826 425Z" fill="#14bda3" stroke="#14bda3"></path><path d="M900 232L834 135L833 224Z" fill="#00ecb2" stroke="#00ecb2"></path><path d="M-25 59L0 152L58 37Z" fill="#0ac5a6" stroke="#0ac5a6"></path><path d="M-25 59L-38 107L0 152Z" fill="#00ddae" stroke="#00ddae"></path><path d="M0 152L-38 107L0 209Z" fill="#00d5ac" stroke="#00d5ac"></path><path d="M0 0L-25 59L58 37Z" fill="#14bda3" stroke="#14bda3"></path><path d="M900 396L900 341L872 405Z" fill="#05f4b3" stroke="#05f4b3"></path><path d="M872 405L900 341L830 300Z" fill="#00ecb2" stroke="#00ecb2"></path><path d="M855 243L900 232L833 224Z" fill="#14bda3" stroke="#14bda3"></path><path d="M900 341L900 325L830 300Z" fill="#00e4b0" stroke="#00e4b0"></path><path d="M910 431L900 396L872 405Z" fill="#00cda9" stroke="#00cda9"></path><path d="M900 448L872 405L861 446Z" fill="#00ddae" stroke="#00ddae"></path><path d="M922 302L900 232L855 243Z" fill="#00cda9" stroke="#00cda9"></path><path d="M903 473L861 446L900 493Z" fill="#00d5ac" stroke="#00d5ac"></path><path d="M0 -15L58 37L101 0Z" fill="#1cb69f" stroke="#1cb69f"></path><path d="M0 -15L0 0L58 37Z" fill="#23ae9b" stroke="#23ae9b"></path><path d="M900 448L910 431L872 405Z" fill="#23ae9b" stroke="#23ae9b"></path><path d="M900 396L922 302L900 341Z" fill="#23ae9b" stroke="#23ae9b"></path><path d="M900 341L922 302L900 325Z" fill="#23ae9b" stroke="#23ae9b"></path><path d="M900 325L922 302L855 243Z" fill="#00e4b0" stroke="#00e4b0"></path><path d="M900 493L861 446L835 464Z" fill="#0ac5a6" stroke="#0ac5a6"></path><path d="M900 448L903 473L910 431Z" fill="#0ac5a6" stroke="#0ac5a6"></path><path d="M897 600L900 493L770 549Z" fill="#23ae9b" stroke="#23ae9b"></path><path d="M903 473L900 600L910 431Z" fill="#00cda9" stroke="#00cda9"></path><path d="M910 431L922 302L900 396Z" fill="#00d5ac" stroke="#00d5ac"></path><path d="M173 -27L0 -15L101 0Z" fill="#1cb69f" stroke="#1cb69f"></path><path d="M0 0L0 -15L-25 59Z" fill="#1cb69f" stroke="#1cb69f"></path><path d="M900 71L797 82L834 135Z" fill="#1cb69f" stroke="#1cb69f"></path><path d="M900 0L802 -38L797 82Z" fill="#05f4b3" stroke="#05f4b3"></path><path d="M797 82L802 -38L749 50Z" fill="#0ac5a6" stroke="#0ac5a6"></path><path d="M688 0L802 -38L654 0Z" fill="#00ecb2" stroke="#00ecb2"></path><path d="M922 302L932 188L900 232Z" fill="#00e4b0" stroke="#00e4b0"></path><path d="M900 232L932 188L834 135Z" fill="#23ae9b" stroke="#23ae9b"></path><path d="M788 600L897 600L770 549Z" fill="#05f4b3" stroke="#05f4b3"></path><path d="M900 493L900 600L903 473Z" fill="#05f4b3" stroke="#05f4b3"></path><path d="M910 431L900 634L922 302Z" fill="#1cb69f" stroke="#1cb69f"></path><path d="M922 302L900 634L932 188Z" fill="#00ecb2" stroke="#00ecb2"></path><path d="M897 600L900 600L900 493Z" fill="#00cda9" stroke="#00cda9"></path><path d="M932 188L900 71L834 135Z" fill="#00ecb2" stroke="#00ecb2"></path><path d="M919 0L900 52L900 71Z" fill="#05f4b3" stroke="#05f4b3"></path><path d="M900 71L900 52L797 82Z" fill="#29a697" stroke="#29a697"></path><path d="M788 600L900 634L897 600Z" fill="#0ac5a6" stroke="#0ac5a6"></path><path d="M897 600L900 634L900 600Z" fill="#23ae9b" stroke="#23ae9b"></path><path d="M900 600L900 634L910 431Z" fill="#05f4b3" stroke="#05f4b3"></path><path d="M774 600L900 634L788 600Z" fill="#1cb69f" stroke="#1cb69f"></path><path d="M713 600L900 634L774 600Z" fill="#00d5ac" stroke="#00d5ac"></path><path d="M652 600L900 634L713 600Z" fill="#23ae9b" stroke="#23ae9b"></path><path d="M495 600L900 634L652 600Z" fill="#14bda3" stroke="#14bda3"></path><path d="M494 600L900 634L495 600Z" fill="#0ac5a6" stroke="#0ac5a6"></path><path d="M408 600L900 634L494 600Z" fill="#00e4b0" stroke="#00e4b0"></path><path d="M379 600L900 634L408 600Z" fill="#00d5ac" stroke="#00d5ac"></path><path d="M331 600L900 634L379 600Z" fill="#1cb69f" stroke="#1cb69f"></path><path d="M275 600L900 634L331 600Z" fill="#0ac5a6" stroke="#0ac5a6"></path><path d="M191 600L900 634L275 600Z" fill="#23ae9b" stroke="#23ae9b"></path><path d="M123 600L900 634L191 600Z" fill="#00e4b0" stroke="#00e4b0"></path><path d="M49 600L900 634L123 600Z" fill="#00ddae" stroke="#00ddae"></path><path d="M0 600L900 634L49 600Z" fill="#00d5ac" stroke="#00d5ac"></path><path d="M919 0L900 0L900 52Z" fill="#14bda3" stroke="#14bda3"></path><path d="M900 52L900 0L797 82Z" fill="#14bda3" stroke="#14bda3"></path><path d="M932 188L919 0L900 71Z" fill="#00cda9" stroke="#00cda9"></path><path d="M900 0L919 0L802 -38Z" fill="#00e4b0" stroke="#00e4b0"></path></g></svg>